<svg xmlns="http://www.w3.org/2000/svg" viewBox="0 0 140 50" width="140" height="50">
  <g transform="translate(6, 12)">
    <!-- Container blocks -->
    <rect x="15" y="6" width="4" height="3.5" fill="#2496ED"/>
    <rect x="20" y="6" width="4" height="3.5" fill="#2496ED"/>
    <rect x="25" y="6" width="4" height="3.5" fill="#2496ED"/>
    <rect x="10" y="10.5" width="4" height="3.5" fill="#2496ED"/>
    <rect x="15" y="10.5" width="4" height="3.5" fill="#2496ED"/>
    <rect x="20" y="10.5" width="4" height="3.5" fill="#2496ED"/>
    <rect x="25" y="10.5" width="4" height="3.5" fill="#2496ED"/>
    <rect x="30" y="10.5" width="4" height="3.5" fill="#2496ED"/>
    <!-- Whale Body -->
    <path fill="#2496ED" d="M37.5 16.5c-.8 0-1.8.2-2.5.6-1.5-1.5-3.8-2.6-6-2.6H8.5c-.7 0-1.4.3-1.9.8-.7.7-1.1 1.7-1.1 2.7 0 6.6 4.6 11.5 12.5 11.5 9 0 14.5-4.5 17.5-10.2 1.3.1 3-.5 3.5-1.8.2-.5 0-.8-.5-.9-.8-.2-1.8-.1-2.5-.1z"/>
    <!-- Spout eye -->
    <circle cx="12" cy="19" r="1" fill="#ffffff"/>
  </g>
  <text x="50" y="32" fill="#2496ED" font-family="-apple-system, BlinkMacSystemFont, 'Segoe UI', Roboto, sans-serif" font-weight="700" font-size="20" letter-spacing="-0.3">docker</text>
</svg>